<svg xmlns="http://www.w3.org/2000/svg" width="50" height="62" viewBox="0 0 50 62" fill="none">
    <path d="M23.1875 61.4239C23.7164 61.7986 24.3501 62 25 62C25.6499 62 26.2836 61.7986 26.8125 61.4239C27.7625 60.7574 50.0903 44.7644 49.9997 24.8002C49.9997 11.126 38.7842 0 25 0C11.2158 0 0.000275115 11.126 0.000275115 24.7847C-0.0903489 44.7644 22.2375 60.7574 23.1875 61.4239Z" fill="#FDC100"/>
    <path d="M26 17C26 16.4477 25.5523 16 25 16C24.4477 16 24 16.4477 24 17H26ZM24 27C24 27.5523 24.4477 28 25 28C25.5523 28 26 27.5523 26 27H24ZM26 27C26 26.4477 25.5523 26 25 26C24.4477 26 24 26.4477 24 27H26ZM24 37C24 37.5523 24.4477 38 25 38C25.5523 38 26 37.5523 26 37H24ZM25 26C24.4477 26 24 26.4477 24 27C24 27.5523 24.4477 28 25 28V26ZM35 28C35.5523 28 36 27.5523 36 27C36 26.4477 35.5523 26 35 26V28ZM25 28C25.5523 28 26 27.5523 26 27C26 26.4477 25.5523 26 25 26V28ZM15 26C14.4477 26 14 26.4477 14 27C14 27.5523 14.4477 28 15 28V26ZM25 17H24V27H25H26V17H25ZM25 27H24V37H25H26V27H25ZM25 27V28H35V27V26H25V27ZM25 27V26H15V27V28H25V27Z" fill="#121237"/>
</svg>